ISO-10303-21;
HEADER;
FILE_DESCRIPTION(('ViewDefinition[DesignTransferView]'),'2;1');
FILE_NAME('/dev/null','2026-08-31T09:42:22-04:00',(''),(''),'IfcOpenShell 0.8.5','IfcOpenShell 0.8.5','Nobody');
FILE_SCHEMA(('IFC4'));
ENDSEC;
DATA;
#1=IFCPROJECT('12emM254D9ChE9a9uQVrRZ',$,'Tanquilla de muestra',$,$,$,$,(#10),#5);
#2=IFCSIUNIT(*,.LENGTHUNIT.,$,.METRE.);
#3=IFCSIUNIT(*,.AREAUNIT.,$,.SQUARE_METRE.);
#4=IFCSIUNIT(*,.VOLUMEUNIT.,$,.CUBIC_METRE.);
#5=IFCUNITASSIGNMENT((#4,#2,#3));
#6=IFCCARTESIANPOINT((0.,0.,0.));
#7=IFCDIRECTION((0.,0.,1.));
#8=IFCDIRECTION((1.,0.,0.));
#9=IFCAXIS2PLACEMENT3D(#6,#7,#8);
#10=IFCGEOMETRICREPRESENTATIONCONTEXT($,'Model',3,1.0000000000000001E-05,#9,$);
#11=IFCGEOMETRICREPRESENTATIONSUBCONTEXT('Body','Model',*,*,*,*,#10,$,.MODEL_VIEW.,$);
#12=IFCSITE('2I4hskDLvCJg7IhP1M59Wg',$,'Sitio',$,$,$,$,$,$,$,$,$,$,$);
#13=IFCBUILDING('3qbCE2w_T7_vVAWkdnCe_$',$,'Clinica',$,$,$,$,$,$,$,$,$);
#14=IFCBUILDINGSTOREY('2WDo_H6fT5ihMfIOhxZU2I',$,'Nivel 0',$,$,$,$,$,$,$);
#15=IFCRELAGGREGATES('0KKYPQHNXF9Aes$Ee_ucXB',$,$,$,#1,(#12));
#16=IFCRELAGGREGATES('3pboiBE9n5txLkTOoZsmeK',$,$,$,#12,(#13));
#17=IFCRELAGGREGATES('2U83yZhOfBXhU06J4t6h8t',$,$,$,#13,(#14));
#18=IFCBUILDINGELEMENTPROXY('2qvMHnaXXE7woqbra4iEE4',$,'Tanquilla',$,$,#37,#32,$,$);
#19=IFCRELCONTAINEDINSPATIALSTRUCTURE('19R37vksD0bgNYdceiKqmk',$,$,$,(#18),#14);
#20=IFCCARTESIANPOINTLIST2D(((-0.40000000000000002,-0.40000000000000002),(0.40000000000000002,-0.40000000000000002),(0.40000000000000002,0.40000000000000002),(-0.40000000000000002,0.40000000000000002)));
#21=IFCINDEXEDPOLYCURVE(#20,(IFCLINEINDEX((1,2,3,4,1))),$);
#22=IFCCARTESIANPOINTLIST2D(((-0.30000000000000004,-0.30000000000000004),(0.30000000000000004,-0.30000000000000004),(0.30000000000000004,0.30000000000000004),(-0.30000000000000004,0.30000000000000004)));
#23=IFCINDEXEDPOLYCURVE(#22,(IFCLINEINDEX((1,2,3,4,1))),$);
#24=IFCARBITRARYPROFILEDEFWITHVOIDS(.AREA.,'AnilloTanquilla',#21,(#23));
#25=IFCCARTESIANPOINT((0.,0.,0.));
#26=IFCDIRECTION((0.,0.,1.));
#27=IFCDIRECTION((1.,0.,0.));
#28=IFCAXIS2PLACEMENT3D(#25,#26,#27);
#29=IFCDIRECTION((0.,0.,1.));
#30=IFCEXTRUDEDAREASOLID(#24,#28,#29,0.80000000000000004);
#31=IFCSHAPEREPRESENTATION(#11,'Body','SweptSolid',(#30));
#32=IFCPRODUCTDEFINITIONSHAPE($,$,(#31));
#33=IFCCARTESIANPOINT((0.,0.,0.));
#34=IFCDIRECTION((0.,0.,1.));
#35=IFCDIRECTION((1.,0.,0.));
#36=IFCAXIS2PLACEMENT3D(#33,#34,#35);
#37=IFCLOCALPLACEMENT($,#36);
#38=IFCPROPERTYSET('1fi36hOmT7cx0m2KgVb1uk',$,'Pset_APU',$,(#40,#41,#42));
#39=IFCRELDEFINESBYPROPERTIES('2sngYWvwf8Mxugc$J2FYV$',$,$,$,(#18),#38);
#40=IFCPROPERTYSINGLEVALUE('COVENIN_Codigo',$,IFCLABEL('LB-04-CON'),$);
#41=IFCPROPERTYSINGLEVALUE('Partida_Descripcion',$,IFCLABEL('Vaciado de concreto en tanquilla'),$);
#42=IFCPROPERTYSINGLEVALUE('Unidad',$,IFCLABEL('m3'),$);
#43=IFCELEMENTQUANTITY('1DWBaAfCf5eREF7FnrnzLl',$,'Qto_APU',$,$,(#45));
#44=IFCRELDEFINESBYPROPERTIES('2l2EOGfjX1Mu55eCyE5Ei$',$,$,$,(#18),#43);
#45=IFCQUANTITYVOLUME('VolumenConcreto',$,$,0.224,$);
ENDSEC;
END-ISO-10303-21;
